<svg version="1.1" id="Layer_1" xmlns="http://www.w3.org/2000/svg" xmlns:xlink="http://www.w3.org/1999/xlink" x="0px" y="0px"
	 width="100%" viewBox="0 0 624 512" enable-background="new 0 0 624 512" xml:space="preserve">
<path fill="#ffffff" opacity="1.000000" stroke="none" 
	d="
M72.770233,333.830444 
	C72.765739,302.521637 72.726410,271.691437 72.816002,240.861649 
	C72.826492,237.252426 72.096558,234.966080 68.538551,232.926498 
	C60.484734,228.309784 57.129967,220.469940 57.060249,211.473984 
	C56.888493,189.311768 56.761715,167.142319 57.167721,144.985855 
	C57.334911,135.861832 62.217979,129.417664 71.311569,126.497581 
	C108.396118,114.589203 145.446884,102.575676 182.520355,90.632759 
	C213.880783,80.530243 245.249054,70.452003 276.626984,60.403988 
	C287.880737,56.800243 299.208832,53.426037 310.435181,49.740372 
	C318.407318,47.123077 326.090027,47.678204 333.884491,50.514637 
	C361.253632,60.474419 388.674347,70.292656 416.071747,80.174889 
	C459.279785,95.760017 502.476868,111.375534 545.697083,126.926811 
	C555.681824,130.519485 561.078857,137.378296 561.131592,147.828003 
	C561.252808,171.824738 561.267639,195.823517 561.080017,219.819534 
	C561.014099,228.248825 557.832031,235.480621 550.421997,240.162338 
	C547.850098,241.787292 546.918091,243.810547 546.781738,246.720978 
	C545.891907,265.709686 546.631226,284.706726 546.390991,303.698151 
	C546.237122,315.861420 546.512085,328.031799 546.248840,340.191467 
	C546.026306,350.471802 541.423645,358.234772 532.086426,363.131378 
	C484.003937,388.346619 435.940918,413.599304 387.915894,438.923798 
	C363.902435,451.586517 339.941742,464.351074 316.042145,477.227173 
	C304.679718,483.348785 294.048309,482.588135 283.020081,475.962646 
	C236.330582,447.912781 189.474747,420.139740 142.673096,392.276611 
	C123.778374,381.027740 104.823433,369.879303 85.981567,358.542755 
	C76.938766,353.101990 72.785339,344.780792 72.770233,333.830444 
M111.449097,140.274963 
	C121.469818,145.868744 132.045898,150.293930 142.490372,154.991974 
	C183.947052,173.639648 225.423279,192.243851 266.875244,210.901993 
	C276.587006,215.273422 286.346130,219.565063 295.865845,224.328369 
	C301.742432,227.268784 303.838623,234.264389 301.410126,240.228745 
	C299.221100,245.604874 293.138824,248.506805 286.866974,246.946564 
	C284.460724,246.347961 282.120300,245.383789 279.846680,244.369278 
	C263.266327,236.971024 246.699036,229.543167 230.149307,222.076599 
	C182.932388,200.774261 135.682251,179.544388 88.861160,157.376709 
	C86.975189,156.483795 85.189194,155.065475 82.921936,155.278946 
	C82.699974,155.661041 82.400291,155.936584 82.398956,156.213562 
	C82.316475,173.376785 82.270805,190.540176 82.182343,207.703369 
	C82.171242,209.857956 83.349503,210.958511 85.086479,211.921005 
	C94.550880,217.165482 98.162468,225.601151 98.155106,236.028549 
	C98.134048,265.861359 98.423416,295.698273 97.971291,325.524200 
	C97.852516,333.359497 99.035942,339.098816 107.173294,341.740417 
	C109.017624,342.339172 110.561958,343.832031 112.280609,344.852264 
	C170.581528,379.461273 228.885544,414.065033 287.200317,448.650696 
	C288.422821,449.375732 289.593323,450.575378 291.527344,449.654236 
	C291.594147,448.278351 291.724121,446.803009 291.728607,445.327271 
	C291.786438,426.327972 291.852539,407.328644 291.865051,388.329285 
	C291.886810,355.330109 291.951477,322.330627 291.823029,289.331940 
	C291.786957,280.066193 295.272247,273.713226 303.833527,269.368256 
	C319.869690,261.229675 335.500793,252.295746 351.342865,243.771652 
	C396.811462,219.306458 442.293030,194.865372 487.787659,170.448700 
	C501.680084,162.992722 515.631470,155.646545 530.072083,147.975861 
	C526.417297,146.595810 523.370972,145.394821 520.290100,144.290146 
	C492.709656,134.401001 465.086945,124.628502 437.547791,114.625755 
	C405.158295,102.861275 372.740692,91.161339 340.541901,78.891228 
	C328.587433,74.335701 317.129150,71.775291 305.083771,77.864349 
	C303.332703,78.749527 301.252869,78.966415 299.351288,79.574295 
	C257.983215,92.798401 216.615097,106.022545 175.255249,119.272392 
	C154.025940,126.073326 132.812607,132.924179 111.449097,140.274963 
M435.359375,226.931351 
	C418.219879,236.176208 401.072418,245.406403 383.942841,254.669632 
	C362.863220,266.068909 341.812408,277.521576 320.709991,288.878418 
	C318.036804,290.317078 316.917633,292.269012 316.893402,295.267914 
	C316.816711,304.757294 316.444916,314.245117 316.426697,323.733978 
	C316.362762,357.043854 316.398865,390.353912 316.397217,423.663910 
	C316.396820,431.437927 316.397156,439.211945 316.397156,446.830322 
	C318.728851,447.672424 320.186951,446.723419 321.609650,445.966278 
	C337.037231,437.755341 352.423248,429.466156 367.862915,421.277954 
	C392.125946,408.410400 416.406311,395.575195 440.707397,382.779510 
	C466.486755,369.205475 492.284790,355.666565 518.117615,342.194763 
	C520.821594,340.784668 521.944275,339.013184 521.869568,335.920349 
	C521.688660,328.429474 521.827332,320.930756 521.844727,313.435211 
	C521.897827,290.615509 521.912903,267.795593 522.028748,244.976181 
	C522.080078,234.863754 523.991699,225.613510 534.549377,220.920868 
	C536.674988,219.976074 536.500488,218.148926 536.502686,216.259720 
	C536.517639,203.434814 536.615601,190.610031 536.633606,177.785141 
	C536.635315,176.548355 537.177490,175.088989 535.181396,173.692093 
	C502.295166,191.216431 469.142151,208.882919 435.359375,226.931351 
z"/>
<path fill="#ffffff" opacity="1.000000" stroke="none" 
	d="
M203.038269,311.000000 
	C203.042953,327.160736 203.065964,342.821472 203.040771,358.482147 
	C203.037582,360.470123 202.989532,362.499023 202.603424,364.437469 
	C201.574890,369.601196 197.919296,371.903687 193.053162,370.120087 
	C186.322952,367.653198 179.895294,364.432465 173.741150,360.765106 
	C169.584061,358.287781 168.667877,354.101807 168.678162,349.506470 
	C168.741150,321.349762 168.576035,293.191284 168.869415,265.037384 
	C168.925278,259.676727 167.284317,257.152649 162.266098,255.218811 
	C150.003708,250.493362 138.045837,244.983139 125.904999,239.933990 
	C121.494705,238.099838 119.547432,234.874603 119.248749,230.310211 
	C118.834091,223.973465 119.067558,217.648560 119.724976,211.351883 
	C120.264496,206.184464 124.043030,204.102081 129.747238,206.214447 
	C136.297409,208.640060 142.662857,211.570251 149.082504,214.341568 
	C181.931351,228.522110 214.718994,242.846725 247.661987,256.804810 
	C253.875595,259.437531 257.141083,262.935974 256.584259,269.872437 
	C256.198700,274.675507 256.575623,279.535004 256.345062,284.356506 
	C256.044647,290.638184 252.079727,293.640198 246.225586,291.322723 
	C234.932739,286.852264 223.860443,281.822144 212.721008,276.968353 
	C209.854431,275.719299 207.053452,274.341522 203.041763,273.752991 
	C203.041763,286.291077 203.041763,298.395538 203.038269,311.000000 
z"/>
</svg>